<?xml version="1.0" encoding="UTF-8"?>
<svg width="22px" height="22px" viewBox="0 0 22 22" version="1.1" xmlns="http://www.w3.org/2000/svg" xmlns:xlink="http://www.w3.org/1999/xlink">
    <title>error</title>
    <g id="Page-1" stroke="none" stroke-width="1" fill="none" fill-rule="evenodd">
        <g id="error" fill-rule="nonzero">
            <circle id="Oval" fill="#D81604" cx="11" cy="11" r="11"></circle>
            <path d="M12.44,13.76 L12.44,4 L9.8,4 L9.8,13.76 L12.44,13.76 Z M11.12,18.28 C11.3733333,18.28 11.6166667,18.23 11.85,18.13 C12.0833333,18.03 12.2866667,17.8966667 12.46,17.73 C12.6333333,17.5633333 12.77,17.3633333 12.87,17.13 C12.97,16.8966667 13.02,16.6466667 13.02,16.38 C13.02,16.1133333 12.97,15.8633333 12.87,15.63 C12.77,15.3966667 12.6333333,15.1966667 12.46,15.03 C12.2866667,14.8633333 12.0833333,14.73 11.85,14.63 C11.6166667,14.53 11.3733333,14.48 11.12,14.48 C10.8533333,14.48 10.6066667,14.53 10.38,14.63 C10.1533333,14.73 9.95333333,14.8633333 9.78,15.03 C9.60666667,15.1966667 9.47,15.3966667 9.37,15.63 C9.27,15.8633333 9.22,16.1133333 9.22,16.38 C9.22,16.6466667 9.27,16.8966667 9.37,17.13 C9.47,17.3633333 9.60666667,17.5633333 9.78,17.73 C9.95333333,17.8966667 10.1533333,18.03 10.38,18.13 C10.6066667,18.23 10.8533333,18.28 11.12,18.28 Z" id="!" fill="#FFFFFF"></path>
        </g>
    </g>
</svg>