<?xml version="1.0" encoding="utf-8"?>
<!-- Generator: Adobe Illustrator 25.4.1, SVG Export Plug-In . SVG Version: 6.00 Build 0)  -->
<svg version="1.1" id="Layer_1" xmlns="http://www.w3.org/2000/svg" xmlns:xlink="http://www.w3.org/1999/xlink" x="0px" y="0px"
	 viewBox="0 0 517.7 500.4" style="enable-background:new 0 0 517.7 500.4;" xml:space="preserve">
<style type="text/css">
	.st0{fill:#174478;}
</style>
<path class="st0" d="M238.2,136.7L264.8,0C140.9,20.4,29.2,124.5,4.8,250.2c-24.4,125.7,46.7,229.9,162.7,250.2l26.6-136.7
	c-42.6-17.3-66.9-61.4-56.8-113.5C147.4,198.2,188.8,154.1,238.2,136.7 M350.2,0l-26.6,136.7c42.6,17.3,66.9,61.4,56.8,113.5
	c-10.1,52.1-51.6,96.1-100.9,113.5L253,500.4c123.9-20.4,235.5-124.5,260-250.2C537.4,124.5,466.2,20.4,350.2,0"/>
</svg>
