<?xml version="1.0" encoding="utf-8"?>
<!-- Generator: Adobe Illustrator 25.4.1, SVG Export Plug-In . SVG Version: 6.00 Build 0)  -->
<svg version="1.1" id="Layer_1" xmlns="http://www.w3.org/2000/svg" xmlns:xlink="http://www.w3.org/1999/xlink" x="0px" y="0px"
	 viewBox="0 0 55.8 55.8" style="enable-background:new 0 0 55.8 55.8;" xml:space="preserve">
<style type="text/css">
	.st0{fill:#FFFFFF;}
	.st1{fill:#11284D;}
</style>
<g>
	<path class="st0" d="M55.8,27.9c0,15.4-12.5,27.9-27.9,27.9S0,43.3,0,27.9S12.5,0,27.9,0S55.8,12.5,55.8,27.9z"/>
	<g>
		<g>
			<path class="st1" d="M15,23.4h5.6v17.9H15V23.4z M17.7,14.5c1.8,0,3.2,1.4,3.2,3.2c0,1.8-1.4,3.2-3.2,3.2c-1.8,0-3.2-1.4-3.2-3.2
				C14.5,16,16,14.5,17.7,14.5"/>
			<path class="st1" d="M24,23.4h5.3v2.4h0.1c0.7-1.4,2.6-2.9,5.3-2.9c5.6,0,6.7,3.7,6.7,8.5v9.8h-5.5v-8.7c0-2.1,0-4.7-2.9-4.7
				c-2.9,0-3.3,2.3-3.3,4.6v8.8H24V23.4z"/>
		</g>
	</g>
</g>
</svg>
